name C:\Users\u0101727\Documents\MyRepositories\upper-imu-dc\Results\main_tracking\Case_18\kinematics.mot
datacolumns 10
datarows 33
range 3.45000000 3.77000000
endheader 
time	clav_prot	clav_elev	scapula_abduction	scapula_elevation	scapula_upward_rot	scapula_winging	plane_elv	shoulder_elv	axial_rot	
          3.45000000	        -45.18861263	         10.55668517	         -3.20473015	         -1.03374044	         81.09080407	        -13.18998957	         39.62007744	         94.28842113	         -9.09794045	
          3.46000000	        -45.17993937	         10.56688016	         -3.21761974	         -1.02958363	         81.05888816	        -13.19154554	         39.69730534	         94.28543440	         -8.87492248	
          3.47000000	        -45.17099082	         10.58146441	         -3.23471559	         -1.02292732	         81.02249422	        -13.19463155	         39.77746510	         94.28087407	         -8.62925693	
          3.48000000	        -45.16050414	         10.59895585	         -3.25115664	         -1.01433568	         80.98465526	        -13.19756954	         39.85514705	         94.27309453	         -8.38359596	
          3.49000000	        -45.14752936	         10.61819142	         -3.26382187	         -1.00434289	         80.94694020	        -13.19920086	         39.92669197	         94.26156948	         -8.15303278	
          3.50000000	        -45.13127945	         10.63822777	         -3.27087505	         -0.99348143	         80.90968362	        -13.19872491	         39.98987006	         94.24679046	         -7.94610887	
          3.51000000	        -45.11099164	         10.65822366	         -3.27113103	         -0.98229745	         80.87246425	        -13.19550263	         40.04333306	         94.22996171	         -7.76706516	
          3.52000000	        -45.08592267	         10.67739208	         -3.26366608	         -0.97133117	         80.83458227	        -13.18896765	         40.08620764	         94.21261571	         -7.61786788	
          3.53000000	        -45.05550740	         10.69502844	         -3.24783578	         -0.96107606	         80.79539023	        -13.17868804	         40.11800624	         94.19624565	         -7.49925927	
          3.54000000	        -45.01960564	         10.71056141	         -3.22357191	         -0.95194760	         80.75446291	        -13.16451731	         40.13878959	         94.18201058	         -7.41094573	
          3.55000000	        -44.97870658	         10.72356629	         -3.19167397	         -0.94428425	         80.71166944	        -13.14672182	         40.14936627	         94.17054151	         -7.35152613	
          3.56000000	        -44.93398279	         10.73372769	         -3.15386393	         -0.93837391	         80.66720831	        -13.12599984	         40.15132804	         94.16186471	         -7.31867634	
          3.57000000	        -44.88716110	         10.74079273	         -3.11254648	         -0.93447355	         80.62162228	        -13.10337781	         40.14684192	         94.15544663	         -7.30970285	
          3.58000000	        -44.84025346	         10.74455630	         -3.07037325	         -0.93279947	         80.57577384	        -13.08002723	         40.13826275	         94.15034808	         -7.32223237	
          3.59000000	        -44.79523266	         10.74489225	         -3.02977257	         -0.93348835	         80.53076011	        -13.05706668	         40.12770447	         94.14545228	         -7.35471382	
          3.60000000	        -44.75373609	         10.74180880	         -2.99257364	         -0.93654953	         80.48777420	        -13.03539912	         40.11669613	         94.13971100	         -7.40656401	
          3.61000000	        -44.71685801	         10.73549484	         -2.95979096	         -0.94183263	         80.44794785	        -13.01561115	         40.10599356	         94.13234489	         -7.47798614	
          3.62000000	        -44.68506663	         10.72634063	         -2.93160401	         -0.94902152	         80.41220396	        -12.99794899	         40.09557998	         94.12295590	         -7.56951934	
          3.63000000	        -44.65825657	         10.71494123	         -2.90755429	         -0.95765049	         80.38111686	        -12.98237879	         40.08486910	         94.11155301	         -7.68129249	
          3.64000000	        -44.63591058	         10.70209583	         -2.88692804	         -0.96713258	         80.35476979	        -12.96871779	         40.07307794	         94.09852387	         -7.81200316	
          3.65000000	        -44.61731055	         10.68879973	         -2.86921053	         -0.97679586	         80.33262467	        -12.95679305	         40.05966945	         94.08458384	         -7.95785429	
          3.66000000	        -44.60173401	         10.67620990	         -2.85446779	         -0.98593086	         80.31344460	        -12.94657528	         40.04474173	         94.07071300	         -8.11181465	
          3.67000000	        -44.58859894	         10.66556576	         -2.84355710	         -0.99385428	         80.29530861	        -12.93825350	         40.02927623	         94.05807224	         -8.26350274	
          3.68000000	        -44.57754483	         10.65806006	         -2.83812224	         -0.99998849	         80.27574795	        -12.93223707	         40.01519730	         94.04787973	         -8.39986887	
          3.69000000	        -44.56844052	         10.65466668	         -2.84034421	         -1.00394914	         80.25202322	        -12.92907766	         40.00520254	         94.04123181	         -8.50677618	
          3.70000000	        -44.56130273	         10.65594470	         -2.85242730	         -1.00562680	         80.22154002	        -12.92930562	         40.00233213	         94.03887226	         -8.57146762	
          3.71000000	        -44.55613336	         10.66186244	         -2.87589575	         -1.00524060	         80.18233905	        -12.93320675	         40.00933218	         94.04094947	         -8.58552762	
          3.72000000	        -44.55274561	         10.67172157	         -2.91096066	         -1.00333232	         80.13350596	        -12.94062800	         40.02803044	         94.04684017	         -8.54735395	
          3.73000000	        -44.55067156	         10.68426210	         -2.95627519	         -1.00067325	         80.07532116	        -12.95091947	         40.05900010	         94.05512618	         -8.46299976	
          3.74000000	        -44.54918256	         10.69796243	         -3.00919913	         -0.99808524	         80.00906830	        -12.96304795	         40.10163060	         94.06376961	         -8.34490862	
          3.75000000	        -44.54738233	         10.71146232	         -3.06644351	         -0.99621485	         79.93655660	        -12.97582944	         40.15452237	         94.07046488	         -8.20895338	
          3.76000000	        -44.54431536	         10.72398352	         -3.12485225	         -0.99532388	         79.85950187	        -12.98819082	         40.21603443	         94.07308652	         -8.07070770	
          3.77000000	        -44.53905151	         10.73561708	         -3.18208111	         -0.99516267	         79.77894248	        -12.99937807	         40.28481501	         94.07011933	         -7.94199759	
